<?xml version="1.0" encoding="UTF-8"?>
<svg version="1.1" xmlns="http://www.w3.org/2000/svg" width="194" height="194">
<path d="M0 0 C3.41019088 1.25040332 5.62722309 3.28825496 8 6 C8 6.66 8 7.32 8 8 C8.81210938 8.32097656 8.81210938 8.32097656 9.640625 8.6484375 C12.8392797 10.48077943 15.20964484 12.99796606 17.75 15.625 C18.25660156 16.140625 18.76320312 16.65625 19.28515625 17.1875 C20.52803902 18.45383339 21.76465276 19.7263144 23 21 C22.505 22.485 22.505 22.485 22 24 C19.62564316 25.05691445 17.3196665 25.95566339 14.875 26.8125 C5.01553149 30.53801111 -1.0474801 35.50313491 -6 45 C-10.85782887 55.96846625 -13.95975542 67.9626583 -9.66796875 79.6171875 C-4.11643886 90.46961387 2.33057151 97.27144779 13 103 C13.928125 103.598125 14.85625 104.19625 15.8125 104.8125 C26.42335989 108.76556545 38.89504039 107.41515005 49.125 102.9375 C50.4241912 102.30694017 51.71766502 101.66416901 53 101 C53.66 100.67 54.32 100.34 55 100 C54.49640452 95.68858202 53.25355656 93.76462178 50.17578125 90.75 C49.39396484 89.9765625 48.61214844 89.203125 47.80664062 88.40625 C46.98357422 87.6121875 46.16050781 86.818125 45.3125 86 C44.50876953 85.2059375 43.70503906 84.411875 42.87695312 83.59375 C39.55265057 80.33196499 36.23006199 77.11865751 32.62109375 74.171875 C30.36393368 72.30156055 28.58784317 70.51344895 26.75 68.25 C22.5957391 63.3582411 17.83548049 59.20307359 13 55 C13.495 54.01 13.495 54.01 14 53 C27.6746325 50.05511955 44.37624486 47.22994476 56.96643066 54.77856445 C64.36270741 60.17299472 70.78503445 66.55197743 77.0625 73.1875 C77.74959612 73.90764849 77.74959612 73.90764849 78.45057297 74.64234543 C81.54020039 77.8894752 84.55818858 81.19244905 87.53515625 84.54296875 C88.31025543 85.41419373 89.08535461 86.2854187 89.88394165 87.18304443 C90.92377701 88.41344452 90.92377701 88.41344452 91.98461914 89.66870117 C92.59455215 90.38595871 93.20448517 91.10321625 93.832901 91.84220886 C95 94 95 94 94.74095154 96.65498352 C90.01629836 111.60790418 74.24940091 123.30376328 61.0625 130.375 C45.61265547 137.52402832 25.4420541 138.80760814 8.97265625 134.1640625 C-10.51575504 126.53259527 -27.33635864 111.12751989 -36 92 C-42.15743574 74.29368957 -42.37599392 51.1909231 -34.4375 34.0625 C-30.89906404 26.88786307 -26.50421929 20.82495387 -21 15 C-19.94039062 13.86498047 -19.94039062 13.86498047 -18.859375 12.70703125 C-17 11 -17 11 -15 11 C-15 10.34 -15 9.68 -15 9 C-12.89914656 7.55307418 -10.81758184 6.23038317 -8.625 4.9375 C-7.72007813 4.39125977 -7.72007813 4.39125977 -6.796875 3.83398438 C-4.56080366 2.48985704 -2.33435542 1.16717771 0 0 Z " fill="#EB5E51" transform="translate(72,43)"/>
<path d="M0 0 C1.5455427 -0.00321951 3.09108511 -0.00658409 4.6366272 -0.01008606 C7.85557768 -0.01603644 11.07450145 -0.01792983 14.29345703 -0.01733398 C18.41589434 -0.01723174 22.53816182 -0.03096578 26.6605587 -0.04810619 C29.84327992 -0.0592161 33.02595964 -0.06125363 36.20869827 -0.06072426 C37.72933165 -0.06190274 39.24996615 -0.06631712 40.77058029 -0.07405663 C42.89063362 -0.08385095 45.01031176 -0.08098261 47.13037109 -0.07495117 C48.93711807 -0.0770887 48.93711807 -0.0770887 50.78036499 -0.07926941 C53.71688982 0.1571273 55.37998761 0.62735803 57.8515625 2.16796875 C57.68701065 3.32534546 57.5224588 4.48272217 57.35292053 5.6751709 C56.83855953 9.81150262 56.75078253 13.88892751 56.82983398 18.05273438 C56.83944153 18.79517395 56.84904907 19.53761353 56.85894775 20.30255127 C56.89160488 22.72654733 56.9320608 25.15034379 56.97265625 27.57421875 C56.99699003 29.26671674 57.02083189 30.95922187 57.04420471 32.6517334 C57.10672178 37.08390499 57.17587828 41.51594853 57.24645996 45.94799805 C57.31743778 50.47959616 57.38207788 55.0112843 57.44726562 59.54296875 C57.57585995 68.41806772 57.71147491 77.29304427 57.8515625 86.16796875 C53.77604663 85.48136258 52.16673843 84.92690238 49.59375 81.63671875 C47.04078728 78.53165189 44.41416551 75.70335004 41.484375 72.94921875 C40.74445313 72.24410156 40.00453125 71.53898437 39.2421875 70.8125 C37.71936407 69.37106885 36.18524262 67.94148946 34.640625 66.5234375 C27.95130353 60.08143249 27.95130353 60.08143249 27.79296875 54.34179688 C27.81230469 53.62443359 27.83164063 52.90707031 27.8515625 52.16796875 C27.83480469 51.31138672 27.81804687 50.45480469 27.80078125 49.57226562 C27.75350387 46.76911081 27.76392876 43.97134799 27.7890625 41.16796875 C27.79357422 40.20246094 27.79808594 39.23695312 27.80273438 38.2421875 C27.81440833 35.88404786 27.83078229 33.52604273 27.8515625 31.16796875 C27.06845703 31.26335937 26.28535156 31.35875 25.47851562 31.45703125 C1.70853457 33.84374272 1.70853457 33.84374272 -7.70498657 26.39141846 C-14.57408619 20.37333965 -24.23499936 11.90828318 -27.1484375 3.16796875 C-26.8184375 2.50796875 -26.4884375 1.84796875 -26.1484375 1.16796875 C-17.79507848 -0.81724724 -8.54784771 0.00421058 0 0 Z " fill="#CAA26D" transform="translate(117.1484375,35.83203125)"/>
<path d="M0 0 C22.77 0 45.54 0 69 0 C69.495 1.98 69.495 1.98 70 4 C47.56 4 25.12 4 2 4 C1.34 2.68 0.68 1.36 0 0 Z " fill="#BB9662" transform="translate(102,36)"/>
<path d="M0 0 C0.99 0.33 1.98 0.66 3 1 C3.08204828 2.39482079 3.13966204 3.79108728 3.1875 5.1875 C3.22230469 5.96480469 3.25710937 6.74210937 3.29296875 7.54296875 C3 10 3 10 1.5 12.19921875 C-0.40832899 15.76242679 -0.34269659 18.24157588 -0.29296875 22.26953125 C-0.28872391 22.95053391 -0.28447906 23.63153656 -0.28010559 24.33317566 C-0.2634061 26.49336459 -0.22577312 28.65259642 -0.1875 30.8125 C-0.17244174 32.28318958 -0.15875534 33.75389389 -0.14648438 35.22460938 C-0.11353214 38.81671357 -0.06181173 42.40826326 0 46 C-1.485 46.495 -1.485 46.495 -3 47 C-5.81519853 36.61453186 -5.38130019 24.8090902 -4.25 14.1875 C-4.17612061 13.4538623 -4.10224121 12.72022461 -4.02612305 11.96435547 C-3.46758392 7.44264886 -2.25610313 3.94818049 0 0 Z " fill="#E05E52" transform="translate(37,80)"/>
<path d="M0 0 C0.33 0 0.66 0 1 0 C1.350625 1.2375 1.70125 2.475 2.0625 3.75 C6.91836109 18.13605574 15.26134237 26.77437628 28.5703125 33.61328125 C40.81097854 38.56252549 54.0649561 35.37618276 66 31 C65.67 31.99 65.34 32.98 65 34 C61.535 34.495 61.535 34.495 58 35 C58 35.66 58 36.32 58 37 C51.91014878 38.37733084 46.47969655 39.31612369 40.27734375 38.3515625 C36.85975423 37.82397578 33.41637131 37.6289652 29.96875 37.37890625 C29.3190625 37.25386719 28.669375 37.12882812 28 37 C27.67 36.34 27.34 35.68 27 35 C23.37438822 32.93999331 20.12797305 31.60705486 16 31 C15.9175 30.38125 15.835 29.7625 15.75 29.125 C15.21351879 26.84276697 15.21351879 26.84276697 13.125 26 C12.42375 25.67 11.7225 25.34 11 25 C8 21.57142857 8 21.57142857 8 19 C7.34 19 6.68 19 6 19 C5.67 18.01 5.34 17.02 5 16 C4.34 15.67 3.68 15.34 3 15 C0.61789511 9.6860737 -0.36196676 5.79146822 0 0 Z " fill="#E87568" transform="translate(59,114)"/>
<path d="M0 0 C7.91417883 6.63604414 15.20085909 13.86876014 22.53662109 21.1315918 C24.18703713 22.76025309 25.8436968 24.38261011 27.50634766 25.9987793 C29.91455752 28.34042346 32.30279632 30.70085726 34.6875 33.06640625 C35.43628418 33.78735977 36.18506836 34.50831329 36.95654297 35.25111389 C37.97385498 36.27258766 37.97385498 36.27258766 39.01171875 37.31469727 C39.61459717 37.90726822 40.21747559 38.49983917 40.83862305 39.11036682 C42 41 42 41 41.75024414 43.60142517 C39.80769568 49.81186732 35.73386937 54.67189086 31 59 C31.1875 56.125 31.1875 56.125 32 53 C32.804375 52.690625 33.60875 52.38125 34.4375 52.0625 C35.283125 51.711875 36.12875 51.36125 37 51 C38.33176975 47.58880932 38.33176975 47.58880932 39 44 C39.33 43.01 39.66 42.02 40 41 C39.34 41 38.68 41 38 41 C35.375 38.625 35.375 38.625 33 36 C33 35.34 33 34.68 33 34 C32.01 33.67 31.02 33.34 30 33 C28.28831352 31.37960346 26.62792239 29.7045305 25 28 C24.1028125 27.1028125 23.205625 26.205625 22.28125 25.28125 C19.52083333 22.52083333 16.76041667 19.76041667 14 17 C13.11570313 16.12730469 12.23140625 15.25460938 11.3203125 14.35546875 C9.54888943 12.55720593 7.93304256 10.78920025 6.375 8.8125 C4.12277665 5.88119654 4.12277665 5.88119654 1 4 C1 3.34 1 2.68 1 2 C0.34 1.67 -0.32 1.34 -1 1 C-0.67 0.67 -0.34 0.34 0 0 Z " fill="#E67566" transform="translate(125,96)"/>
<path d="M0 0 C2.31059266 1.58853245 4.15353414 3.26475331 6 5.375 C6 6.035 6 6.695 6 7.375 C6.54140625 7.58898438 7.0828125 7.80296875 7.640625 8.0234375 C10.8392797 9.85577943 13.20964484 12.37296606 15.75 15 C16.25660156 15.515625 16.76320313 16.03125 17.28515625 16.5625 C18.52803902 17.82883339 19.76465276 19.1013144 21 20.375 C20.67 21.365 20.34 22.355 20 23.375 C17.62557738 24.43194374 15.32027059 25.33207604 12.875 26.1875 C6.84980838 28.42910141 2.55778677 30.71121819 -2 35.375 C-2.66 36.035 -3.32 36.695 -4 37.375 C-4 35.725 -4 34.075 -4 32.375 C-2.02 31.715 -0.04 31.055 2 30.375 C2 29.385 2 28.395 2 27.375 C5.465 26.88 5.465 26.88 9 26.375 C9 25.715 9 25.055 9 24.375 C12.96 22.89 12.96 22.89 17 21.375 C16.175 20.59125 15.35 19.8075 14.5 19 C12 16.375 12 16.375 12 14.375 C11.34 14.375 10.68 14.375 10 14.375 C10 13.715 10 13.055 10 12.375 C8.68 11.715 7.36 11.055 6 10.375 C6 9.715 6 9.055 6 8.375 C4.68 8.705 3.36 9.035 2 9.375 C1.67 7.395 1.34 5.415 1 3.375 C-2.3 3.705 -5.6 4.035 -9 4.375 C-3.52380952 -1.10119048 -3.52380952 -1.10119048 0 0 Z " fill="#E47567" transform="translate(74,43.625)"/>
<path d="M0 0 C2.97 0.495 2.97 0.495 6 1 C5.67 1.66 5.34 2.32 5 3 C5.99 3.66 6.98 4.32 8 5 C8.28875 5.598125 8.5775 6.19625 8.875 6.8125 C10.42482921 9.8260568 12.46673689 11.77567142 15 14 C17.9707824 14 20.9395959 13.96533332 23.91015625 13.9296875 C26.29426769 13.91105123 28.67838247 13.89283947 31.0625 13.875 C32.27228516 13.85824219 33.48207031 13.84148438 34.72851562 13.82421875 C35.88158203 13.81777344 37.03464844 13.81132813 38.22265625 13.8046875 C39.81219116 13.78897705 39.81219116 13.78897705 41.43383789 13.77294922 C44 14 44 14 46 16 C38.11452756 19.94273622 22.60772292 18.50062575 14 17 C8.00835561 14.27353901 4.2581283 9.58536279 1 4 C0.20703125 1.578125 0.20703125 1.578125 0 0 Z " fill="#CBAB7B" transform="translate(101,49)"/>
<path d="M0 0 C11.88 0 23.76 0 36 0 C31.98038839 2.00980581 30.46807628 2.23947017 26.140625 2.1953125 C25.02558594 2.18886719 23.91054687 2.18242188 22.76171875 2.17578125 C21.60285156 2.15902344 20.44398437 2.14226562 19.25 2.125 C18.07566406 2.11597656 16.90132812 2.10695313 15.69140625 2.09765625 C12.79406464 2.07410063 9.89713559 2.04120652 7 2 C7 2.99 7 3.98 7 5 C3.90837736 3.61410019 2.50816459 2.50816459 0 0 Z " fill="#E84C44" transform="translate(89,98)"/>
<path d="M0 0 C2.5654594 2.5654594 2.54046087 4.47686668 3 8 C2.01 8.33 1.02 8.66 0 9 C-0.04898438 10.03640625 -0.09796875 11.0728125 -0.1484375 12.140625 C-0.22349597 13.51044208 -0.29904247 14.88023248 -0.375 16.25 C-0.4059375 16.93191406 -0.436875 17.61382812 -0.46875 18.31640625 C-0.68259374 21.98739038 -1.01077055 24.86251616 -3 28 C-3.90238747 25.29283758 -4.11851302 23.76223232 -4.09765625 20.98828125 C-4.09443359 20.23095703 -4.09121094 19.47363281 -4.08789062 18.69335938 C-4.07951172 17.90767578 -4.07113281 17.12199219 -4.0625 16.3125 C-4.05798828 15.51521484 -4.05347656 14.71792969 -4.04882812 13.89648438 C-4.0370585 11.93095743 -4.01912348 9.96546915 -4 8 C-3.01 7.67 -2.02 7.34 -1 7 C-0.67 4.69 -0.34 2.38 0 0 Z " fill="#EB5547" transform="translate(60,88)"/>
<path d="M0 0 C0.99 0.33 1.98 0.66 3 1 C2.67 1.66 2.34 2.32 2 3 C2.804375 3.268125 3.60875 3.53625 4.4375 3.8125 C5.283125 4.204375 6.12875 4.59625 7 5 C7.33 5.99 7.66 6.98 8 8 C8.99 8.33 9.98 8.66 11 9 C12.6484375 10.671875 12.6484375 10.671875 14.375 12.75 C17.12534216 15.99668841 19.94652216 19.03905179 23 22 C22.67 22.66 22.34 23.32 22 24 C18.54360931 21.30232922 15.57581071 18.60606973 12.75 15.25 C8.5957391 10.3582411 3.83548049 6.20307359 -1 2 C-0.67 1.34 -0.34 0.68 0 0 Z " fill="#E97466" transform="translate(86,96)"/>
<path d="M0 0 C6.93 0 13.86 0 21 0 C21.33 0.99 21.66 1.98 22 3 C14.41 3 6.82 3 -1 3 C-0.67 2.01 -0.34 1.02 0 0 Z " fill="#DB4B3F" transform="translate(92,176)"/>
<path d="M0 0 C0.99 0.33 1.98 0.66 3 1 C2.01 1.495 2.01 1.495 1 2 C0.67 2.66 0.34 3.32 0 4 C-0.66 4 -1.32 4 -2 4 C-2.495 4.66 -2.99 5.32 -3.5 6 C-3.995 6.66 -4.49 7.32 -5 8 C-5.66 8 -6.32 8 -7 8 C-7.33 8.99 -7.66 9.98 -8 11 C-8.66 11 -9.32 11 -10 11 C-10.33 11.99 -10.66 12.98 -11 14 C-11.99 14 -12.98 14 -14 14 C-14.66 15.32 -15.32 16.64 -16 18 C-16.99 18 -17.98 18 -19 18 C-17.21479439 15.99388266 -15.42241288 13.9951283 -13.625 12 C-13.11710937 11.42765625 -12.60921875 10.8553125 -12.0859375 10.265625 C-10.76495095 8.80558723 -9.38599201 7.39847843 -8 6 C-7.34 6 -6.68 6 -6 6 C-6 5.34 -6 4.68 -6 4 C-3.1875 1.8125 -3.1875 1.8125 0 0 Z " fill="#DE6D5D" transform="translate(63,48)"/>
<path d="M0 0 C2.16679291 4.33358582 2.23437001 6.40685879 2.1953125 11.171875 C2.1924826 11.8542926 2.18965271 12.53671021 2.18673706 13.23980713 C2.17558098 15.41005307 2.15048557 17.57987971 2.125 19.75 C2.11496426 21.22525444 2.10583944 22.70051537 2.09765625 24.17578125 C2.07565687 27.78398942 2.04115883 31.39195375 2 35 C0.515 35.495 0.515 35.495 -1 36 C-0.67 24.12 -0.34 12.24 0 0 Z " fill="#E34F47" transform="translate(35,91)"/>
<path d="M0 0 C-2.66178221 1.3308911 -4.68739396 1.11268993 -7.6640625 1.09765625 C-8.78554687 1.09443359 -9.90703125 1.09121094 -11.0625 1.08789062 C-12.238125 1.07951172 -13.41375 1.07113281 -14.625 1.0625 C-15.80835938 1.05798828 -16.99171875 1.05347656 -18.2109375 1.04882812 C-21.14067507 1.03701467 -24.07031272 1.02054258 -27 1 C-27.33 0.34 -27.66 -0.32 -28 -1 C-23.89658886 -1.22556502 -19.79235012 -1.42750038 -15.6875 -1.625 C-14.52025391 -1.68945312 -13.35300781 -1.75390625 -12.15039062 -1.8203125 C-11.03212891 -1.871875 -9.91386719 -1.9234375 -8.76171875 -1.9765625 C-7.73006592 -2.02893066 -6.69841309 -2.08129883 -5.63549805 -2.13525391 C-3 -2 -3 -2 0 0 Z " fill="#D3B180" transform="translate(147,65)"/>
<path d="M0 0 C2.31059266 1.58853245 4.15353414 3.26475331 6 5.375 C6 6.035 6 6.695 6 7.375 C7.32 8.035 8.64 8.695 10 9.375 C7.33333333 9.375 4.66666667 9.375 2 9.375 C1.67 7.395 1.34 5.415 1 3.375 C-2.3 3.705 -5.6 4.035 -9 4.375 C-3.52380952 -1.10119048 -3.52380952 -1.10119048 0 0 Z " fill="#DF6D5E" transform="translate(74,43.625)"/>
<path d="M0 0 C0.66 0 1.32 0 2 0 C2.93619813 3.15506142 3.1057123 5.96586502 3.0625 9.25 C3.05347656 10.14203125 3.04445312 11.0340625 3.03515625 11.953125 C3.02355469 12.62859375 3.01195312 13.3040625 3 14 C1.35 13.67 -0.3 13.34 -2 13 C-2 12.34 -2 11.68 -2 11 C-1.34 11 -0.68 11 0 11 C0 7.37 0 3.74 0 0 Z " fill="#C8A679" transform="translate(172,108)"/>
<path d="M0 0 C0.66 0.66 1.32 1.32 2 2 C1.27554688 2.30292969 0.55109375 2.60585937 -0.1953125 2.91796875 C-6.96289008 5.8505857 -11.78941667 8.78941667 -17 14 C-17 12.35 -17 10.7 -17 9 C-15.02 8.34 -13.04 7.68 -11 7 C-11 6.01 -11 5.02 -11 4 C-7.535 3.505 -7.535 3.505 -4 3 C-4 2.34 -4 1.68 -4 1 C-2.125 0.375 -2.125 0.375 0 0 Z " fill="#E57263" transform="translate(87,67)"/>
<path d="M0 0 C0.6640625 1.72265625 0.6640625 1.72265625 1 4 C-1.57514124 9.41166899 -5.60029735 13.9885064 -10 18 C-9.8125 15.125 -9.8125 15.125 -9 12 C-8.195625 11.690625 -7.39125 11.38125 -6.5625 11.0625 C-5.716875 10.711875 -4.87125 10.36125 -4 10 C-2.74843159 6.57784653 -2.74843159 6.57784653 -2 3 C-1.34 2.01 -0.68 1.02 0 0 Z " fill="#DF6B5D" transform="translate(166,137)"/>
<path d="M0 0 C3.3 0.33 6.6 0.66 10 1 C9.34 1.66 8.68 2.32 8 3 C6.68 3 5.36 3 4 3 C3.67 3.66 3.34 4.32 3 5 C3.99 4.67 4.98 4.34 6 4 C6.66 5.98 7.32 7.96 8 10 C6.68121422 9.23997083 5.3701316 8.46656347 4.0625 7.6875 C3.33160156 7.25824219 2.60070312 6.82898437 1.84765625 6.38671875 C0 5 0 5 -1 2 C-0.67 1.34 -0.34 0.68 0 0 Z " fill="#D0AD7B" transform="translate(91,37)"/>
<path d="M0 0 C1.32 0.33 2.64 0.66 4 1 C3.69096017 2.33917261 3.34976758 3.67088318 3 5 C2.5978125 6.5778125 2.5978125 6.5778125 2.1875 8.1875 C1 11 1 11 -1.125 11.875 C-1.74375 11.91625 -2.3625 11.9575 -3 12 C-2.2575 10.9790625 -2.2575 10.9790625 -1.5 9.9375 C0.30365111 6.40534991 0.23021353 3.91363009 0 0 Z " fill="#E7554A" transform="translate(161,136)"/>
<path d="M0 0 C1.11375 0.1546875 1.11375 0.1546875 2.25 0.3125 C2.25 1.3025 2.25 2.2925 2.25 3.3125 C-0.5625 4.875 -0.5625 4.875 -3.75 6.3125 C-4.74 5.9825 -5.73 5.6525 -6.75 5.3125 C-3.42692308 0.38942308 -3.42692308 0.38942308 0 0 Z " fill="#E64D44" transform="translate(136.75,166.6875)"/>
<path d="M0 0 C0.33 0.99 0.66 1.98 1 3 C0.34 3.66 -0.32 4.32 -1 5 C-1.33 5.845625 -1.66 6.69125 -2 7.5625 C-3 10 -3 10 -5 11 C-5.3125 7.75 -5.3125 7.75 -5 4 C-2.5 1.5625 -2.5 1.5625 0 0 Z " fill="#EB796A" transform="translate(67,83)"/>
<path d="M0 0 C2 1.3125 2 1.3125 4 3 C4 3.99 4 4.98 4 6 C5.32 6.33 6.64 6.66 8 7 C8 7.66 8 8.32 8 9 C2.98886765 7.5682479 1.05530451 5.01554307 -2 1 C-1.34 0.67 -0.68 0.34 0 0 Z " fill="#D9534A" transform="translate(53,155)"/>
<path d="M0 0 C1.32 0.33 2.64 0.66 4 1 C4 2.32 4 3.64 4 5 C2.35 5.66 0.7 6.32 -1 7 C-1 4 -1 4 1 2 C0.67 1.34 0.34 0.68 0 0 Z " fill="#EB9172" transform="translate(90,62)"/>
<path d="M0 0 C0.66 0.33 1.32 0.66 2 1 C2.33 1.99 2.66 2.98 3 4 C1.5629191 4.05422947 0.12524538 4.09289723 -1.3125 4.125 C-2.11300781 4.14820313 -2.91351563 4.17140625 -3.73828125 4.1953125 C-6 4 -6 4 -9 2 C-6.94921875 1.77213542 -4.8984375 1.54427083 -2.84765625 1.31640625 C-0.98859771 1.18113386 -0.98859771 1.18113386 0 0 Z " fill="#C8A458" transform="translate(169,36)"/>
<path d="M0 0 C2.875 -0.1875 2.875 -0.1875 6 0 C6.66 0.99 7.32 1.98 8 3 C5.36 3 2.72 3 0 3 C0 2.01 0 1.02 0 0 Z " fill="#EA6C5F" transform="translate(85,175)"/>
<path d="M0 0 C0.66 0 1.32 0 2 0 C2 1.98 2 3.96 2 6 C1.38125 6.144375 0.7625 6.28875 0.125 6.4375 C-2.03258322 6.93152225 -2.03258322 6.93152225 -4 8 C-3.40312566 4.65750371 -2.26396123 2.53563658 0 0 Z " fill="#E9554A" transform="translate(152,152)"/>
<path d="M0 0 C0.33 0 0.66 0 1 0 C1.48108275 1.41601714 1.95978141 2.83284437 2.4375 4.25 C2.83775391 5.43335937 2.83775391 5.43335937 3.24609375 6.640625 C3.91954708 8.74821988 4.49150595 10.84753973 5 13 C0.02036199 8.18099548 0.02036199 8.18099548 -0.0625 3.375 C-0.041875 2.26125 -0.02125 1.1475 0 0 Z " fill="#E06B5C" transform="translate(59,114)"/>
<path d="M0 0 C3.53600465 1.91135386 5.78972846 3.62642766 8 7 C7.67 7.66 7.34 8.32 7 9 C5.82737096 7.88121617 4.66204862 6.75476949 3.5 5.625 C2.8503125 4.99851562 2.200625 4.37203125 1.53125 3.7265625 C0 2 0 2 0 0 Z " fill="#CDAC7D" transform="translate(148,96)"/>
<path d="M0 0 C5.75 1.625 5.75 1.625 8 5 C7.67 5.99 7.34 6.98 7 8 C5.83035398 6.8572081 4.66435444 5.71068285 3.5 4.5625 C2.8503125 3.92441406 2.200625 3.28632813 1.53125 2.62890625 C0 1 0 1 0 0 Z " fill="#EA7164" transform="translate(118,129)"/>
<path d="M0 0 C1.76462683 3.08809695 2 4.23312136 2 8 C0.35 7.67 -1.3 7.34 -3 7 C-3 6.34 -3 5.68 -3 5 C-2.01 5 -1.02 5 0 5 C0 3.35 0 1.7 0 0 Z " fill="#D5B68C" transform="translate(173,114)"/>
<path d="M0 0 C-1.1875 1.5 -1.1875 1.5 -3 3 C-5.6875 3.1875 -5.6875 3.1875 -8 3 C-8 2.34 -8 1.68 -8 1 C-5.29120665 -0.35439668 -2.99066732 -0.06501451 0 0 Z " fill="#E76759" transform="translate(122,175)"/>
<path d="M0 0 C0.33 0 0.66 0 1 0 C0.67 2.64 0.34 5.28 0 8 C-0.66 8 -1.32 8 -2 8 C-2.125 5.125 -2.125 5.125 -2 2 C-1.34 1.34 -0.68 0.68 0 0 Z " fill="#E87969" transform="translate(61,95)"/>
<path d="M0 0 C0.99 0.33 1.98 0.66 3 1 C2.01 1.495 2.01 1.495 1 2 C0.67 2.66 0.34 3.32 0 4 C-0.66 4 -1.32 4 -2 4 C-3.34882408 4.63474075 -4.6846659 5.29848848 -6 6 C-6 5.34 -6 4.68 -6 4 C-3.1875 1.8125 -3.1875 1.8125 0 0 Z " fill="#D86156" transform="translate(63,48)"/>
<path d="M0 0 C1.65 0 3.3 0 5 0 C5 0.99 5 1.98 5 3 C3.02 3 1.04 3 -1 3 C-0.67 2.01 -0.34 1.02 0 0 Z " fill="#DC4B41" transform="translate(79,173)"/>
<path d="M0 0 C2.5654594 2.5654594 2.54046087 4.47686668 3 8 C1.68 7.67 0.36 7.34 -1 7 C-0.67 4.69 -0.34 2.38 0 0 Z " fill="#DE5A4A" transform="translate(60,88)"/>
</svg>
